<svg class="svg-icon" style="width: 1em; height: 1em;vertical-align: middle;fill: currentColor;overflow: hidden;" viewBox="0 0 1024 1024" version="1.1" xmlns="http://www.w3.org/2000/svg"><path d="M703.24736 459.85792c-14.16192 0-27.65824 2.7392-40.15104 7.52128l-50.40128-99.67104h39.35232v-20.48h-72.64768l20.7104 40.96H422.7072l-10.3424-20.48h34.88256v-20.48H379.0848l23.02976 45.60896c-0.11776 0.16896-0.2816 0.31232-0.37888 0.49152l-43.4176 75.58144a112.03584 112.03584 0 0 0-44.19072-9.05216c-62.11072 0-112.64 50.52928-112.64 112.65024 0 62.11072 50.52928 112.64 112.64 112.64 58.6496 0 106.9312-45.0816 112.11776-102.4h83.82976a10.24 10.24 0 0 0 8.8576-5.09952l94.56128-162.97472 31.232 61.76256c-32.38912 19.79904-54.1184 55.40352-54.1184 96.07168 0 62.12096 50.52928 112.65024 112.64 112.65024s112.64-50.52928 112.64-112.65024-50.5344-112.65024-112.64-112.65024z m-290.12992-45.23008l74.55232 147.64032H426.24512c-3.15904-34.87232-22.24128-65.18272-49.92-83.59424l36.79232-64.04608z m-7.43424 147.64032H328.2944l37.8112-65.81248c21.57056 14.80192 36.54144 38.52288 39.5776 65.81248z m-91.55584 102.4c-50.82112 0-92.16-41.33888-92.16-92.16s41.33888-92.17024 92.16-92.17024c11.97056 0 23.36768 2.36032 33.8688 6.528l-46.26944 80.54272a10.24 10.24 0 0 0 8.87808 15.33952h95.0784c-5.12 46.01344-44.20608 81.92-91.55584 81.92z m193.48992-108.32896L433.04448 408.66816h160.26112L507.61728 556.3392z m195.63008 108.3392c-50.82112 0-92.16-41.34912-92.16-92.17024 0-32.6912 17.16224-61.39392 42.90048-77.76256l43.36128 85.76 18.2784-9.2416-43.22816-85.504a91.47904 91.47904 0 0 1 30.848-5.43232c50.82112 0 92.16 41.35424 92.16 92.17024s-41.344 92.18048-92.16 92.18048z" fill="#1C2021" /></svg>